<svg width="1623" height="528" viewBox="0 0 1623 528" fill="none" xmlns="http://www.w3.org/2000/svg">
<g opacity="0.8" filter="url(#filter0_g_65_8704)">
<path d="M97.493 142.197C97.8791 140.845 99.7945 140.835 100.178 142.198L103.678 154.559L116.044 151.434C117.426 151.083 118.346 152.766 117.388 153.768L117.388 153.769L108.515 163.007L117.388 172.247H117.388C118.346 173.249 117.426 174.933 116.043 174.581V174.58L106.698 172.218L156.782 238.379L157.389 239.181H101.232L167.639 326.9H110.016L183.752 422.232H117.384V528.948H80.2547V422.232H14.3514L88.0867 326.9H30.4637L96.8709 239.181H40.7127L41.3201 238.379L91.5057 172.083L81.6268 174.58L81.6277 174.581C80.2445 174.933 79.3243 173.249 80.282 172.247H80.283L89.1541 163.007L80.283 153.769L80.282 153.768C79.325 152.767 80.2438 151.084 81.6258 151.434H81.6268L93.992 154.559L97.493 142.198V142.197Z" fill="#E7E9CE"/>
<path d="M232.109 100.081C232.525 98.6261 234.586 98.6157 234.998 100.083H234.997L238.925 113.959L252.807 110.451L252.945 110.422C254.354 110.184 255.254 111.916 254.255 112.962L254.254 112.963L244.295 123.334L254.254 133.706H254.255C255.286 134.785 254.294 136.596 252.807 136.217V136.216L242.197 133.535L298.297 207.643L298.905 208.445H236.189L310.485 306.583H246.055L328.5 413.175H254.294V532.495H212.779V413.175H139.091L221.536 306.583H157.106L231.402 208.445H168.685L169.293 207.643L225.507 133.383L214.298 136.217C212.812 136.595 211.82 134.785 212.851 133.706H212.852L222.81 123.334L212.852 112.963L212.851 112.962C211.82 111.883 212.812 110.073 214.298 110.451L228.179 113.959L232.109 100.082V100.081Z" fill="#DBDDC0"/>
<path d="M1119.25 186.49C1119.6 185.244 1121.37 185.233 1121.72 186.491L1124.78 197.304L1135.6 194.57C1136.88 194.246 1137.72 195.8 1136.84 196.723L1136.84 196.723L1129.08 204.805L1136.84 212.888H1136.84C1137.72 213.81 1136.88 215.365 1135.6 215.04V215.039L1127.55 213.005L1171.48 271.04L1172.09 271.842H1122.64L1180.98 348.909H1130.32L1195.15 432.732H1136.79V526.563H1104.15V432.732H1046.2L1111.03 348.909H1060.37L1118.71 271.842H1069.26L1069.87 271.04L1113.89 212.885L1105.37 215.039L1105.37 215.04C1104.09 215.365 1103.25 213.81 1104.13 212.888L1111.89 204.805L1104.13 196.723V196.723C1103.25 195.8 1104.09 194.247 1105.37 194.57H1105.37L1116.19 197.304L1119.25 186.491V186.49Z" fill="#EEECE4"/>
<path d="M1404.65 186.49C1405.01 185.244 1406.78 185.233 1407.13 186.491L1410.19 197.304L1421.01 194.57C1422.28 194.246 1423.13 195.8 1422.25 196.723L1422.25 196.723L1414.49 204.805L1422.25 212.888H1422.25C1423.13 213.81 1422.28 215.365 1421.01 215.04V215.039L1412.96 213.005L1456.89 271.04L1457.5 271.842H1408.04L1466.39 348.909H1415.72L1480.55 432.732H1422.2V526.563H1389.55V432.732H1331.61L1396.44 348.909H1345.77L1404.12 271.842H1354.66L1355.27 271.04L1399.3 212.885L1390.78 215.039L1390.78 215.04C1389.5 215.365 1388.65 213.81 1389.53 212.888L1397.29 204.805L1389.53 196.723V196.723C1388.65 195.8 1389.5 194.247 1390.77 194.57H1390.78L1401.59 197.304L1404.65 186.491V186.49Z" fill="#EEECE4"/>
<path d="M1215.15 140.914C1215.54 139.562 1217.46 139.552 1217.84 140.915L1221.34 153.276L1233.71 150.151C1235.09 149.8 1236.01 151.484 1235.05 152.485L1235.05 152.486L1226.18 161.724L1235.05 170.964H1235.05C1236.01 171.966 1235.09 173.65 1233.7 173.298V173.297L1224.36 170.936L1274.44 237.096L1275.05 237.898H1218.89L1285.3 325.617H1227.68L1301.41 420.949H1235.05V527.665H1197.92V420.949H1132.01L1205.75 325.617H1148.13L1214.53 237.898H1158.38L1158.98 237.096L1209.17 170.799L1199.29 173.297L1199.29 173.298C1197.91 173.65 1196.99 171.966 1197.94 170.964H1197.94L1206.82 161.724L1197.94 152.486L1197.94 152.485C1196.99 151.484 1197.91 149.801 1199.29 150.151H1199.29L1211.65 153.276L1215.15 140.915V140.914Z" fill="#E7E9CE"/>
<path d="M1491.56 126.159C1491.96 124.78 1493.9 124.769 1494.29 126.161L1497.87 138.919L1510.54 135.695L1510.67 135.667C1512.01 135.439 1512.84 137.093 1511.91 138.074H1511.91L1502.81 147.612L1511.91 157.151L1511.91 157.152C1512.87 158.165 1511.96 159.894 1510.54 159.531V159.53L1500.94 157.087L1552.23 225.338L1552.83 226.138H1495.37L1563.35 316.599H1504.37L1579.84 414.895H1511.91V524.928H1473.91V414.895H1406.45L1481.92 316.599H1422.94L1490.93 226.138H1433.46L1434.06 225.338L1485.46 156.947L1475.31 159.53L1475.31 159.531C1473.89 159.894 1472.98 158.164 1473.94 157.151L1483.04 147.612L1473.94 138.074H1473.94C1472.98 137.061 1473.89 135.332 1475.31 135.695H1475.31L1487.98 138.919L1491.56 126.161L1491.56 126.159Z" fill="#E7E9CE"/>
<path d="M1328.23 84.9338C1328.87 84.934 1329.59 85.2677 1329.84 86.0295L1334.49 100.309L1350.97 96.6868L1351.11 96.6604C1351.83 96.5563 1352.47 96.876 1352.81 97.385C1353.17 97.9429 1353.16 98.7148 1352.55 99.2688V99.2698L1340.82 109.889L1352.55 120.51V120.511C1353.16 121.065 1353.17 121.837 1352.81 122.395C1352.47 122.904 1351.83 123.224 1351.11 123.119L1350.97 123.093L1338.31 120.309L1404.48 196.33L1405.2 197.158H1331.33L1418.94 297.81H1342.97L1440.18 407.119H1352.68V529.482H1303.73V407.119H1216.85L1314.06 297.81H1238.09L1325.7 197.158H1251.83L1252.55 196.33L1318.86 120.154L1305.49 123.092L1305.49 123.093C1304.71 123.265 1304.01 122.938 1303.65 122.395C1303.29 121.837 1303.3 121.065 1303.91 120.511L1303.91 120.51L1315.63 109.889L1303.91 99.2698L1303.91 99.2688C1303.3 98.7149 1303.29 97.9428 1303.65 97.385C1304.01 96.8419 1304.71 96.5145 1305.49 96.6868H1305.49L1321.97 100.309L1326.62 86.0295V86.0286C1326.87 85.2681 1327.59 84.9339 1328.23 84.9338Z" fill="#DBDDC0"/>
<path d="M1011.49 97.0668C1011.9 95.6122 1013.96 95.6018 1014.37 97.0687H1014.37L1018.3 110.945L1032.18 107.437L1032.32 107.408C1033.73 107.171 1034.63 108.902 1033.63 109.948L1033.63 109.949L1023.67 120.32L1033.63 130.692H1033.63C1034.66 131.771 1033.67 133.582 1032.18 133.204V133.203L1021.57 130.521L1077.67 204.629L1078.28 205.431H1015.57L1089.86 303.569H1025.43L1107.88 410.162H1033.67V529.481H992.155V410.162H918.468L1000.91 303.569H936.482L1010.78 205.431H948.062L948.669 204.629L1004.88 130.37L993.675 133.204C992.189 133.581 991.196 131.771 992.228 130.692H992.229L1002.19 120.32L992.229 109.949L992.228 109.948C991.197 108.869 992.189 107.059 993.675 107.437L1007.56 110.945L1011.49 97.0678V97.0668Z" fill="#DBDDC0"/>
<path d="M339.871 189.503C340.227 188.257 341.994 188.247 342.348 189.504L345.408 200.317L356.225 197.583C357.502 197.259 358.348 198.813 357.466 199.736L357.465 199.737L349.704 207.818L357.465 215.901H357.466C358.347 216.823 357.501 218.378 356.224 218.053V218.052L348.175 216.018L392.109 274.053L392.715 274.855H343.262L401.607 351.922H350.94L415.773 435.745H357.418V529.577H324.773V435.745H266.825L331.658 351.922H280.992L339.336 274.855H289.883L290.49 274.053L334.514 215.898L325.993 218.052L325.994 218.053C324.717 218.378 323.871 216.823 324.753 215.901L332.513 207.818L324.753 199.737V199.736C323.871 198.814 324.716 197.26 325.992 197.583H325.993L336.809 200.317L339.871 189.504V189.503Z" fill="#EEECE4"/>
<path d="M804.902 189.334C805.259 188.088 807.025 188.077 807.379 189.335L810.44 200.148L821.256 197.414C822.533 197.09 823.379 198.644 822.497 199.566L822.496 199.567L814.735 207.649L822.496 215.732H822.497C823.379 216.654 822.532 218.209 821.255 217.884V217.883L813.206 215.849L857.14 273.884L857.746 274.686H808.293L866.638 351.753H815.971L880.804 435.576H822.449V529.407H789.804V435.576H731.857L796.69 351.753H746.024L804.367 274.686H754.914L755.522 273.884L799.545 215.729L791.025 217.883L791.026 217.884C789.748 218.209 788.902 216.654 789.784 215.732L797.544 207.649L789.784 199.567V199.566C788.903 198.644 789.747 197.091 791.024 197.414H791.025L801.84 200.148L804.902 189.335V189.334Z" fill="#EEECE4"/>
<path d="M625.277 189.504C625.633 188.258 627.4 188.247 627.753 189.505L630.814 200.317L641.63 197.584C642.907 197.26 643.753 198.814 642.871 199.736L642.87 199.737L635.11 207.818L642.87 215.901H642.871C643.753 216.824 642.907 218.379 641.629 218.054V218.053L633.58 216.018L677.514 274.054L678.12 274.855H628.667L687.012 351.923H636.345L701.178 435.746H642.823V529.577H610.178V435.746H552.231L617.064 351.923H566.398L624.741 274.855H575.288L575.896 274.054L619.919 215.898L611.399 218.053L611.4 218.054C610.122 218.379 609.276 216.824 610.158 215.901L617.918 207.818L610.158 199.737V199.736C609.277 198.814 610.121 197.261 611.398 197.584H611.399L622.214 200.317L625.277 189.505V189.504Z" fill="#EEECE4"/>
<path d="M435.778 143.928C436.165 142.576 438.08 142.565 438.463 143.928L441.963 156.29L454.329 153.165C455.712 152.814 456.631 154.497 455.674 155.499L455.673 155.5L446.801 164.738L455.673 173.978H455.674C456.631 174.98 455.711 176.664 454.328 176.312V176.311L444.984 173.95L495.068 240.11L495.676 240.912H439.518L505.925 328.631H448.302L522.037 423.963H455.669V530.678H418.54V423.963H352.637L426.372 328.631H368.749L435.156 240.912H378.999L379.607 240.11L429.792 173.813L419.912 176.311L419.913 176.312C418.53 176.664 417.61 174.98 418.568 173.978H418.568L427.44 164.738L418.568 155.5L418.568 155.499C417.61 154.498 418.529 152.815 419.911 153.165H419.912L432.277 156.29L435.778 143.928V143.928Z" fill="#E7E9CE"/>
<path d="M712.187 129.173C712.579 127.793 714.524 127.783 714.912 129.174L718.498 141.932L731.164 138.709L731.296 138.68C732.636 138.453 733.463 140.107 732.532 141.088H732.531L723.438 150.626L732.531 160.165L732.532 160.166C733.493 161.178 732.581 162.908 731.164 162.545V162.544L721.563 160.1L772.854 228.352L773.456 229.153H715.993L783.975 319.613H724.994L800.466 417.91H732.536V527.943H694.532V417.91H627.075L702.547 319.613H643.567L711.549 229.153H654.087L654.688 228.352L706.084 159.96L695.933 162.544L695.934 162.545C694.518 162.907 693.606 161.177 694.567 160.165L703.659 150.626L694.567 141.088H694.566C693.605 140.075 694.518 138.346 695.934 138.709H695.933L708.599 141.932L712.186 129.174L712.187 129.173Z" fill="#E7E9CE"/>
<path d="M548.856 87.9475C549.493 87.9476 550.217 88.2814 550.464 89.0432L555.112 103.323L571.594 99.7004L571.738 99.6741C572.458 99.5699 573.094 99.8897 573.429 100.399C573.796 100.957 573.782 101.729 573.173 102.282V102.283L561.447 112.903L573.173 123.524V123.525C573.782 124.079 573.796 124.851 573.429 125.408C573.094 125.918 572.458 126.237 571.738 126.133L571.594 126.107L558.932 123.323L625.103 199.344L625.823 200.172H551.951L639.566 300.823H563.595L660.807 410.133H573.308V532.495H524.358V410.133H437.47L534.683 300.823H458.712L546.326 200.172H472.453L473.174 199.344L539.48 123.167L526.111 126.106L526.112 126.107C525.334 126.279 524.634 125.952 524.276 125.408C523.91 124.851 523.924 124.078 524.532 123.525L524.533 123.524L536.258 112.903L524.533 102.283L524.532 102.282C523.924 101.729 523.91 100.956 524.276 100.399C524.634 99.8556 525.334 99.5282 526.112 99.7004H526.111L542.593 103.323L547.242 89.0432V89.0422C547.492 88.2818 548.218 87.9476 548.856 87.9475Z" fill="#DBDDC0"/>
<path d="M878.189 39.9088C878.645 38.3151 880.9 38.3047 881.352 39.9098H881.353L885.863 55.8424L901.802 51.815L901.952 51.7828C903.494 51.5233 904.483 53.4201 903.387 54.567V54.568L891.952 66.4742L903.387 78.3814V78.3824C904.518 79.566 903.429 81.5476 901.803 81.1344V81.1353L889.473 78.0182L953.736 162.908L954.343 163.711H882.73L967.726 275.982H894.065L988.322 397.848H903.482V534.265H856.02V397.848H771.773L866.03 275.982H792.37L877.365 163.711H805.752L806.359 162.908L870.752 77.8443L857.739 81.1353L857.738 81.1344C856.112 81.5467 855.023 79.5658 856.154 78.3824L856.155 78.3814L867.588 66.4742L856.155 54.568L856.154 54.567C855.023 53.3832 856.114 51.401 857.74 51.815H857.739L873.677 55.8424L878.188 39.9098L878.189 39.9088Z" fill="#DBDDC0"/>
</g>
<g clip-path="url(#clip0_65_8704)">
<g filter="url(#filter1_g_65_8704)">
<path d="M1254.49 111.711L1156.29 156.528L1132.02 257.27L1199.99 338.041H1308.99L1376.94 257.27L1352.7 156.528L1254.49 111.711Z" fill="#A7C09B"/>
<path d="M1407.82 410.402C1407.82 410.402 1408.55 411.116 1409.88 412.37C1418.86 420.849 1450.6 462.619 1478.14 462.306C1509.76 461.94 1523.21 434.709 1523.21 434.709L1497.45 361.668" fill="#BA584E"/>
<path d="M1384.96 222.307L1288.18 340.565C1288.18 340.565 1391.21 429.833 1505.51 389.265C1505.51 389.265 1502.35 224.171 1474.94 222.307C1447.54 220.444 1384.94 222.307 1384.94 222.307H1384.96Z" fill="#BA584E"/>
<path d="M1312.41 338.65C1312.41 338.65 1296.9 378.87 1272.04 381.395L1268.5 413.693C1268.5 413.693 1295.09 441.046 1318.89 435.057C1342.68 429.067 1392.52 392.799 1392.52 392.799L1312.41 338.65Z" fill="#BA584E"/>
<path d="M1280.14 329.213L1413.76 379.532L1520.02 373.038C1520.02 379.515 1526.46 384.425 1526.46 390.884C1526.46 398.023 1510.36 399.973 1510.36 407.112C1484.87 413.728 1439.87 430.669 1381.57 405.492C1347.76 390.884 1273.71 363.287 1273.71 363.287L1270.5 342.185L1280.15 329.196L1280.14 329.213Z" fill="white"/>
<path d="M1472.22 454.07L1515.41 439.793L1529.03 462.723L1545.75 455.829L1552.26 449.56C1555.78 446.165 1561.22 445.8 1565.12 448.725C1569.58 452.068 1574.43 456.56 1574.07 460.025C1573.41 466.328 1573.91 484.47 1573.91 484.47L1523.52 501.133L1491 511.893L1474.17 485.445L1472.2 454.087L1472.22 454.07Z" fill="#513F28"/>
<path d="M1280.15 379.01L1286.65 424.366L1261.9 433.942L1265.75 451.719L1270.74 459.276C1273.44 463.35 1272.87 468.817 1269.33 472.195C1265.29 476.043 1260.05 480.083 1256.74 479.125C1250.68 477.384 1232.89 474.755 1232.89 474.755L1225.33 421.824L1220.44 387.68L1249.17 375.527L1280.15 378.992V379.01Z" fill="#513F28"/>
<path d="M1344.53 155.657L1352.58 131.768C1352.58 131.768 1354.18 101.925 1354.18 100.428C1354.18 98.9307 1359.02 60.1208 1359.02 60.1208L1354.18 27.283C1354.18 27.283 1459.32 46.4877 1487.24 111.502L1381.56 157.137L1344.53 155.639V155.657Z" fill="#BA584E"/>
<path d="M1487.81 123.063C1489.42 124.682 1508.74 166.887 1508.74 166.887L1439.51 189.609L1418.58 147.404L1487.81 123.063Z" fill="#F4D6C6"/>
<path d="M1367.07 147.421L1494.25 105.216L1505.53 129.557L1429.86 153.898L1442.74 178.24L1505.53 163.631L1528.06 166.87L1526.46 186.353L1545.78 202.581C1545.78 202.581 1550.58 226.904 1542.57 235.035C1534.59 243.132 1524.94 244.768 1524.87 244.768C1524.78 244.768 1515.63 257.931 1502.33 264.252C1488.33 270.903 1470.14 270.746 1470.14 270.746L1452.44 257.757L1439.56 278.86H1415.42L1396.1 262.632L1380 264.252L1365.44 261.309C1359.61 260.125 1355.01 255.598 1353.74 249.748L1349.42 230.16L1330.09 225.285L1321.77 206.011C1318.11 202.041 1317.75 186.162 1320.44 181.461L1333.32 168.472L1339.77 144.131L1367.14 147.369L1367.07 147.421Z" fill="white"/>
<path d="M1502.68 150.782C1497.65 154.473 1495.55 160.985 1497.46 166.957C1499.38 172.912 1504.89 176.951 1511.11 176.951C1517.32 176.951 1522.83 172.912 1524.75 166.957C1526.66 161.002 1524.56 154.473 1519.53 150.782C1514.51 147.091 1507.7 147.091 1502.66 150.782H1502.68Z" fill="#BA584E"/>
<path d="M1345.1 4.8398L1322.55 21.3632C1318.37 24.4276 1316.63 29.8425 1318.21 34.7873L1326.83 61.5312C1328.42 66.476 1333 69.819 1338.16 69.819H1366.05C1371.21 69.819 1375.79 66.476 1377.38 61.5312L1385.99 34.7873C1387.58 29.8425 1385.84 24.4276 1381.66 21.3632L1359.11 4.8398C1354.93 1.7754 1349.28 1.7754 1345.1 4.8398Z" fill="white"/>
<path d="M1423 355.121L1460.46 326.393L1478.31 339.747L1488.86 348.958C1490.12 350.055 1490.69 351.709 1490.38 353.345L1489.83 356.218C1489.5 357.89 1487.6 358.934 1485.94 358.36L1479.02 355.957L1494.96 372.672L1497.6 385.522L1489.66 393.6L1464.72 400.391L1441.41 388.83L1423 355.086V355.121Z" fill="#A7C09B"/>
<path d="M1415.83 358.639L1451.74 322.98L1465.9 315.215L1473.86 318.592L1478.35 332.487L1426.59 370.948L1415.83 358.639Z" fill="white"/>
</g>
</g>
<g filter="url(#filter2_g_65_8704)">
<path d="M149.553 466.533L8.9597 500.586C6.26789 501.238 4.37213 503.648 4.37213 506.418V516.079V524.461C4.37213 527.775 7.05837 530.461 10.3721 530.461H1617C1620.31 530.461 1623 527.775 1623 524.461V520.742C1623 517.999 1621.14 515.605 1618.48 514.928L1518.07 489.351C1517.18 489.125 1516.26 489.105 1515.36 489.292L1387.78 515.915C1387.26 516.024 1386.72 516.063 1386.19 516.031L1149.49 501.698L879.285 474.699C878.798 474.651 878.306 474.662 877.821 474.733L694.316 501.569C693.733 501.654 693.141 501.653 692.558 501.566L513.933 474.794C513.193 474.683 512.438 474.712 511.709 474.878L332.668 515.742C331.699 515.963 330.69 515.94 329.731 515.675L152.567 466.582C151.583 466.309 150.545 466.292 149.553 466.533Z" fill="white"/>
</g>
<g filter="url(#filter3_g_65_8704)">
<g clip-path="url(#clip1_65_8704)">
<path d="M1074.69 333.386L935.899 337.94C932.553 338.049 929.93 340.583 930.04 343.598L936.304 514.772C936.415 517.788 939.217 520.143 942.563 520.033L1081.36 515.48C1084.7 515.37 1087.32 512.837 1087.21 509.821L1080.95 338.647C1080.84 335.632 1078.04 333.276 1074.69 333.386Z" fill="#D6878C"/>
<path d="M1005.85 335.31L1012.64 522.239" stroke="#FFFBEB" stroke-width="14" stroke-linejoin="round"/>
<path d="M933.528 429.444L1083.74 424.396" stroke="#FFFBEB" stroke-width="12" stroke-linejoin="round"/>
<path d="M1012.74 338.404L929.272 293.563C929.272 293.563 904.07 343.593 909.044 344.096C914 344.601 1012.74 338.404 1012.74 338.404Z" fill="#FFFBEB"/>
<path d="M1005.32 334.705L1068.43 312.579L1081.38 349.819L1005.32 334.705Z" fill="#FFFBEB" stroke="#FFFBEB" stroke-width="3" stroke-miterlimit="10"/>
<path d="M1009.74 329.685L994.892 330.173L995.32 341.878L1010.17 341.39L1009.74 329.685Z" fill="#FFFBEB" stroke="#FFFBEB" stroke-width="3" stroke-miterlimit="10"/>
</g>
<g clip-path="url(#clip2_65_8704)">
<path d="M797.693 415.323L704.292 408.471C702.04 408.305 700.103 410.069 699.965 412.41L694.263 509.499C694.126 511.839 695.84 513.871 698.092 514.036L791.493 520.889C793.744 521.054 795.681 519.29 795.819 516.95L801.521 419.861C801.659 417.52 799.945 415.489 797.693 415.323Z" fill="#8BD8B9"/>
<path d="M751.286 410.312C751.286 410.312 727.878 370.456 709.199 379.244C690.261 388.156 726.309 413.637 747.717 410.782L751.286 410.312Z" stroke="#FFFCF8" stroke-width="3" stroke-miterlimit="10"/>
<path d="M751.375 409.653C751.375 409.653 779.245 373.546 796.735 385.001C814.468 396.603 775.75 416.599 754.859 410.64L751.375 409.653Z" stroke="#FFFCF8" stroke-width="3" stroke-miterlimit="10"/>
<path d="M751.25 410.937L744.958 518.911" stroke="#FFFCF8" stroke-width="3" stroke-linecap="round" stroke-linejoin="round"/>
<path d="M697.114 460.954L798.657 468.64" stroke="#FFFCF8" stroke-width="3" stroke-linecap="round" stroke-linejoin="round"/>
</g>
<g clip-path="url(#clip3_65_8704)">
<path d="M576.575 418.417L497.121 433.131C495.205 433.485 493.929 435.39 494.269 437.385L508.396 520.14C508.736 522.135 510.565 523.465 512.481 523.11L591.935 508.397C593.85 508.042 595.127 506.137 594.786 504.142L580.66 421.388C580.319 419.392 578.49 418.063 576.575 418.417Z" fill="#EBC595"/>
<path d="M536.876 424.911L552.629 516.933" stroke="#FFFCF8" stroke-width="6" stroke-linecap="round" stroke-linejoin="round"/>
<path d="M501.332 478.762L587.757 462.964" stroke="#FFFCF8" stroke-width="6" stroke-linecap="round" stroke-linejoin="round"/>
<path d="M538.269 427.671C538.269 427.671 500.354 415.419 501.581 422.611L504.557 440.041L538.269 427.671Z" fill="#FFFCF8" stroke="#FFFCF8" stroke-width="3" stroke-miterlimit="10"/>
<path d="M537.531 427.076L568.486 406.78C568.486 406.78 575.513 420.877 573.149 425.35C570.784 429.824 537.531 427.076 537.531 427.076Z" fill="#FFFCF8" stroke="#FFFCF8" stroke-width="3" stroke-miterlimit="10"/>
</g>
<g clip-path="url(#clip4_65_8704)">
<path d="M347.074 364.653L220.316 379.298C217.26 379.651 215.123 382.487 215.543 385.631L232.948 516.055C233.367 519.2 236.185 521.462 239.241 521.109L365.999 506.464C369.055 506.111 371.192 503.276 370.772 500.132L353.367 369.707C352.947 366.563 350.13 364.3 347.074 364.653Z" fill="#FFFCF8"/>
<path d="M283.809 370.633L303.233 515.667" stroke="#DB8C8F" stroke-width="6" stroke-miterlimit="10"/>
<path d="M224.245 450.843L362.128 435.232" stroke="#DB8C8F" stroke-width="6" stroke-miterlimit="10"/>
<path d="M282.865 369.376C272.71 365.992 243.566 356.307 229.374 351.598C222.683 349.374 233.867 381.138 241.383 379.985C257.579 377.494 288.313 371.194 282.848 369.378L282.865 369.376Z" fill="#DB8C8F"/>
<path d="M286.634 368.941C295.591 363.348 321.304 347.326 333.828 339.53C339.731 335.851 337.235 369.195 329.645 369.788C313.286 371.058 281.829 371.943 286.651 368.939L286.634 368.941Z" fill="#DB8C8F"/>
</g>
</g>
<defs>
<filter id="filter0_g_65_8704" x="10.3514" y="34.7097" width="1573.49" height="503.555" filterUnits="userSpaceOnUse" color-interpolation-filters="sRGB">
<feFlood flood-opacity="0" result="BackgroundImageFix"/>
<feBlend mode="normal" in="SourceGraphic" in2="BackgroundImageFix" result="shape"/>
<feTurbulence type="fractalNoise" baseFrequency="0.20000000298023224 0.20000000298023224" numOctaves="3" seed="4519" />
<feDisplacementMap in="shape" scale="8" xChannelSelector="R" yChannelSelector="G" result="displacedImage" width="100%" height="100%" />
<feMerge result="effect1_texture_65_8704">
<feMergeNode in="displacedImage"/>
</feMerge>
</filter>
<filter id="filter1_g_65_8704" x="1128.02" y="-1.4585" width="450.064" height="517.352" filterUnits="userSpaceOnUse" color-interpolation-filters="sRGB">
<feFlood flood-opacity="0" result="BackgroundImageFix"/>
<feBlend mode="normal" in="SourceGraphic" in2="BackgroundImageFix" result="shape"/>
<feTurbulence type="fractalNoise" baseFrequency="0.25 0.25" numOctaves="3" seed="5505" />
<feDisplacementMap in="shape" scale="8" xChannelSelector="R" yChannelSelector="G" result="displacedImage" width="100%" height="100%" />
<feMerge result="effect1_texture_65_8704">
<feMergeNode in="displacedImage"/>
</feMerge>
</filter>
<filter id="filter2_g_65_8704" x="0.372131" y="462.364" width="1626.63" height="72.0967" filterUnits="userSpaceOnUse" color-interpolation-filters="sRGB">
<feFlood flood-opacity="0" result="BackgroundImageFix"/>
<feBlend mode="normal" in="SourceGraphic" in2="BackgroundImageFix" result="shape"/>
<feTurbulence type="fractalNoise" baseFrequency="0.25 0.25" numOctaves="3" seed="4438" />
<feDisplacementMap in="shape" scale="8" xChannelSelector="R" yChannelSelector="G" result="displacedImage" width="100%" height="100%" />
<feMerge result="effect1_texture_65_8704">
<feMergeNode in="displacedImage"/>
</feMerge>
</filter>
<filter id="filter3_g_65_8704" x="207.254" y="274.808" width="898.831" height="263.655" filterUnits="userSpaceOnUse" color-interpolation-filters="sRGB">
<feFlood flood-opacity="0" result="BackgroundImageFix"/>
<feBlend mode="normal" in="SourceGraphic" in2="BackgroundImageFix" result="shape"/>
<feTurbulence type="fractalNoise" baseFrequency="0.5 0.5" numOctaves="3" seed="1943" />
<feDisplacementMap in="shape" scale="8" xChannelSelector="R" yChannelSelector="G" result="displacedImage" width="100%" height="100%" />
<feMerge result="effect1_texture_65_8704">
<feMergeNode in="displacedImage"/>
</feMerge>
</filter>
<clipPath id="clip0_65_8704">
<rect width="442.079" height="509.334" fill="white" transform="translate(1144 0.532227)"/>
</clipPath>
<clipPath id="clip1_65_8704">
<rect width="176.592" height="231.506" fill="white" transform="matrix(0.988798 -0.14926 0.137822 0.990457 895.565 305.166)"/>
</clipPath>
<clipPath id="clip2_65_8704">
<rect width="105.591" height="142.98" fill="white" transform="matrix(0.997319 0.0731735 -0.0586317 0.99828 700.323 374.245)"/>
</clipPath>
<clipPath id="clip3_65_8704">
<rect width="94.3516" height="111.055" fill="white" transform="matrix(0.983283 -0.182085 0.16827 0.985741 487.909 419.415)"/>
</clipPath>
<clipPath id="clip4_65_8704">
<rect width="138.758" height="171.682" fill="white" transform="matrix(0.993392 -0.114772 0.132278 0.991213 211.254 353.496)"/>
</clipPath>
</defs>
</svg>
